<svg width="18" height="18" viewBox="0 0 18 18" fill="none" xmlns="http://www.w3.org/2000/svg">
<g clip-path="url(#clip0_11_492)">
<path d="M17.671 16.0841L14.1871 12.5987C16.7939 9.11514 16.0831 4.17789 12.5996 1.5711C9.11598 -1.03569 4.17873 -0.324904 1.57194 3.15868C-1.03485 6.64226 -0.324064 11.5795 3.15952 14.1863C5.95782 16.2803 9.80122 16.2803 12.5996 14.1863L16.0849 17.6716C16.5229 18.1096 17.233 18.1096 17.671 17.6716C18.109 17.2336 18.109 16.5235 17.671 16.0856L17.671 16.0841ZM7.90858 13.5136C4.81254 13.5136 2.30273 11.0038 2.30273 7.90774C2.30273 4.8117 4.81254 2.30189 7.90858 2.30189C11.0046 2.30189 13.5144 4.8117 13.5144 7.90774C13.5111 11.0024 11.0033 13.5103 7.90858 13.5136Z" fill="#FF0000"/>
</g>
<defs>
<clipPath id="clip0_11_492">
<rect width="18" height="18" fill="white"/>
</clipPath>
</defs>
</svg>
