<svg width="138" height="40" viewBox="0 0 138 40" fill="none" xmlns="http://www.w3.org/2000/svg">
<g clip-path="url(#clip0_88_110)">
<path d="M30 10H21.6667C21.6667 7.16667 19.5 5 16.6667 5H10C9 5 8.33333 4.33333 8.33333 3.33333C8.33333 2.33333 9 1.66667 10 1.66667H32.5C33 1.66667 33.3333 1.33333 33.3333 0.833333C33.3333 0.333333 33 0 32.5 0H10C8.16667 0 6.66667 1.5 6.66667 3.33333C6.66667 5.16667 8.16667 6.66667 10 6.66667H16.6667C18.5 6.66667 20 8.16667 20 10H10C4.5 10 0 14.5 0 20V33.3333C0 37 3 40 6.66667 40C8.5 40 10.1667 39.3333 11.3333 38L19 30.1667C19.3333 30 19.5 29.8333 19.8333 29.8333C20.1667 29.8333 20.5 30 20.6667 30.1667L28.3333 38C29.5 39.1667 31.1667 40 33 40C36.6667 40 39.6667 37 39.6667 33.3333V20C40 14.5 35.5 10 30 10ZM36.6667 33.3333C36.6667 35.1667 35.1667 36.6667 33.3333 36.6667C32.3333 36.6667 31.5 36.3333 31 35.6667L23.5 28.1667C23.5 28.1667 22 26.6667 20 26.6667C18 26.6667 16.5 28.1667 16.5 28.1667L9 35.6667C8.5 36.3333 7.66667 36.6667 6.66667 36.6667C4.83333 36.6667 3.33333 35.1667 3.33333 33.3333V20C3.33333 16.3333 6.33333 13.3333 10 13.3333H30C33.6667 13.3333 36.6667 16.3333 36.6667 20V33.3333Z" fill="#FF0000"/>
<path d="M28.3332 26.6667C29.2536 26.6667 29.9998 25.9205 29.9998 25C29.9998 24.0795 29.2536 23.3333 28.3332 23.3333C27.4127 23.3333 26.6665 24.0795 26.6665 25C26.6665 25.9205 27.4127 26.6667 28.3332 26.6667Z" fill="#FF0000"/>
<path d="M28.3332 20C29.2536 20 29.9998 19.2538 29.9998 18.3333C29.9998 17.4129 29.2536 16.6667 28.3332 16.6667C27.4127 16.6667 26.6665 17.4129 26.6665 18.3333C26.6665 19.2538 27.4127 20 28.3332 20Z" fill="#FF0000"/>
<path d="M25.0002 23.3333C25.9206 23.3333 26.6668 22.5871 26.6668 21.6667C26.6668 20.7462 25.9206 20 25.0002 20C24.0797 20 23.3335 20.7462 23.3335 21.6667C23.3335 22.5871 24.0797 23.3333 25.0002 23.3333Z" fill="#FF0000"/>
<path d="M31.6667 23.3333C32.5871 23.3333 33.3333 22.5871 33.3333 21.6667C33.3333 20.7462 32.5871 20 31.6667 20C30.7462 20 30 20.7462 30 21.6667C30 22.5871 30.7462 23.3333 31.6667 23.3333Z" fill="#FF0000"/>
<path d="M14.9998 20H13.3332V18.3333C13.3332 17.3333 12.6665 16.6667 11.6665 16.6667C10.6665 16.6667 9.99984 17.3333 9.99984 18.3333V20H8.33317C7.33317 20 6.6665 20.6667 6.6665 21.6667C6.6665 22.6667 7.33317 23.3333 8.33317 23.3333H9.99984V25C9.99984 26 10.6665 26.6667 11.6665 26.6667C12.6665 26.6667 13.3332 26 13.3332 25V23.3333H14.9998C15.9998 23.3333 16.6665 22.6667 16.6665 21.6667C16.6665 20.6667 15.9998 20 14.9998 20Z" fill="#FF0000"/>
</g>
<path d="M56.02 27.72C54.9933 27.72 54.0267 27.5333 53.12 27.16C52.2267 26.7867 51.4467 26.2733 50.78 25.62C50.1133 24.9533 49.5867 24.18 49.2 23.3C48.8267 22.4067 48.64 21.4467 48.64 20.42C48.64 19.3933 48.8333 18.44 49.22 17.56C49.6067 16.68 50.14 15.9133 50.82 15.26C51.5133 14.5933 52.32 14.08 53.24 13.72C54.16 13.3467 55.1467 13.16 56.2 13.16C57.4133 13.16 58.5133 13.38 59.5 13.82C60.5 14.26 61.3267 14.8667 61.98 15.64L59.84 17.78C59.3867 17.1933 58.8533 16.7533 58.24 16.46C57.6267 16.1667 56.9333 16.02 56.16 16.02C55.3333 16.02 54.5933 16.2067 53.94 16.58C53.2867 16.94 52.7733 17.4533 52.4 18.12C52.04 18.7733 51.86 19.54 51.86 20.42C51.86 21.3 52.04 22.0733 52.4 22.74C52.76 23.4067 53.2533 23.9267 53.88 24.3C54.5067 24.6733 55.2267 24.86 56.04 24.86C56.8667 24.86 57.5667 24.7067 58.14 24.4C58.7267 24.08 59.1733 23.6267 59.48 23.04C59.8 22.44 59.96 21.7133 59.96 20.86L62.04 22.26L55.74 22.16V19.5H63.16V19.96C63.16 21.6533 62.8533 23.08 62.24 24.24C61.64 25.3867 60.8 26.2533 59.72 26.84C58.6533 27.4267 57.42 27.72 56.02 27.72ZM68.8431 27.7C67.9498 27.7 67.1498 27.48 66.4431 27.04C65.7498 26.6 65.1965 26 64.7831 25.24C64.3831 24.48 64.1831 23.6133 64.1831 22.64C64.1831 21.6667 64.3831 20.8 64.7831 20.04C65.1965 19.28 65.7498 18.68 66.4431 18.24C67.1498 17.8 67.9498 17.58 68.8431 17.58C69.4965 17.58 70.0831 17.7067 70.6031 17.96C71.1365 18.2133 71.5698 18.5667 71.9031 19.02C72.2365 19.46 72.4231 19.9667 72.4631 20.54V24.74C72.4231 25.3133 72.2365 25.8267 71.9031 26.28C71.5831 26.72 71.1565 27.0667 70.6231 27.32C70.0898 27.5733 69.4965 27.7 68.8431 27.7ZM69.4631 24.94C70.1165 24.94 70.6431 24.7267 71.0431 24.3C71.4431 23.86 71.6431 23.3067 71.6431 22.64C71.6431 22.1867 71.5498 21.7867 71.3631 21.44C71.1898 21.0933 70.9365 20.8267 70.6031 20.64C70.2831 20.44 69.9098 20.34 69.4831 20.34C69.0565 20.34 68.6765 20.44 68.3431 20.64C68.0231 20.8267 67.7631 21.0933 67.5631 21.44C67.3765 21.7867 67.2831 22.1867 67.2831 22.64C67.2831 23.08 67.3765 23.4733 67.5631 23.82C67.7498 24.1667 68.0098 24.44 68.3431 24.64C68.6765 24.84 69.0498 24.94 69.4631 24.94ZM71.5231 27.5V24.88L71.9831 22.52L71.5231 20.16V17.78H74.5231V27.5H71.5231ZM76.6777 27.5V17.78H79.7377V27.5H76.6777ZM82.8977 27.5V21.82C82.8977 21.3267 82.7443 20.9467 82.4377 20.68C82.1443 20.4 81.7777 20.26 81.3377 20.26C81.031 20.26 80.7577 20.3267 80.5177 20.46C80.2777 20.58 80.0843 20.7533 79.9377 20.98C79.8043 21.2067 79.7377 21.4867 79.7377 21.82L78.5577 21.3C78.5577 20.5267 78.7243 19.8667 79.0577 19.32C79.391 18.76 79.8443 18.3333 80.4177 18.04C80.991 17.7333 81.6377 17.58 82.3577 17.58C83.0377 17.58 83.6443 17.7333 84.1777 18.04C84.7243 18.3467 85.1577 18.7733 85.4777 19.32C85.7977 19.8667 85.9577 20.52 85.9577 21.28V27.5H82.8977ZM89.1177 27.5V21.82C89.1177 21.3267 88.9643 20.9467 88.6577 20.68C88.3643 20.4 87.9977 20.26 87.5577 20.26C87.251 20.26 86.9777 20.3267 86.7377 20.46C86.4977 20.58 86.3043 20.7533 86.1577 20.98C86.0243 21.2067 85.9577 21.4867 85.9577 21.82L84.1977 21.58C84.2243 20.7533 84.4177 20.0467 84.7777 19.46C85.151 18.86 85.6377 18.4 86.2377 18.08C86.851 17.7467 87.5377 17.58 88.2977 17.58C89.0443 17.58 89.7043 17.74 90.2777 18.06C90.8643 18.3667 91.3243 18.8133 91.6577 19.4C92.0043 19.9733 92.1777 20.6667 92.1777 21.48V27.5H89.1177ZM94.1386 27.5V17.78H97.1986V27.5H94.1386ZM95.6786 16.44C95.1986 16.44 94.7986 16.28 94.4786 15.96C94.1719 15.6267 94.0186 15.2267 94.0186 14.76C94.0186 14.28 94.1719 13.88 94.4786 13.56C94.7986 13.24 95.1986 13.08 95.6786 13.08C96.1586 13.08 96.5519 13.24 96.8586 13.56C97.1653 13.88 97.3186 14.28 97.3186 14.76C97.3186 15.2267 97.1653 15.6267 96.8586 15.96C96.5519 16.28 96.1586 16.44 95.6786 16.44ZM105.773 27.5V21.96C105.773 21.4533 105.613 21.0467 105.293 20.74C104.987 20.42 104.593 20.26 104.113 20.26C103.78 20.26 103.487 20.3333 103.233 20.48C102.98 20.6133 102.78 20.8133 102.633 21.08C102.487 21.3333 102.413 21.6267 102.413 21.96L101.233 21.38C101.233 20.62 101.4 19.9533 101.733 19.38C102.067 18.8067 102.527 18.3667 103.113 18.06C103.713 17.74 104.387 17.58 105.133 17.58C105.853 17.58 106.487 17.7533 107.033 18.1C107.593 18.4333 108.033 18.88 108.353 19.44C108.673 20 108.833 20.6133 108.833 21.28V27.5H105.773ZM99.3534 27.5V17.78H102.413V27.5H99.3534ZM114.919 31.86C113.852 31.86 112.912 31.6733 112.099 31.3C111.299 30.94 110.665 30.4267 110.199 29.76L112.079 27.88C112.425 28.2933 112.812 28.6067 113.239 28.82C113.679 29.0333 114.205 29.14 114.819 29.14C115.579 29.14 116.172 28.9533 116.599 28.58C117.039 28.2067 117.259 27.68 117.259 27V24.52L117.779 22.4L117.319 20.28V17.78H120.319V26.92C120.319 27.92 120.085 28.7867 119.619 29.52C119.152 30.2533 118.512 30.8267 117.699 31.24C116.885 31.6533 115.959 31.86 114.919 31.86ZM114.779 27.2C113.885 27.2 113.092 26.9867 112.399 26.56C111.705 26.1333 111.159 25.5533 110.759 24.82C110.359 24.0867 110.159 23.2733 110.159 22.38C110.159 21.4733 110.359 20.66 110.759 19.94C111.159 19.2067 111.705 18.6333 112.399 18.22C113.092 17.7933 113.885 17.58 114.779 17.58C115.445 17.58 116.039 17.7067 116.559 17.96C117.092 18.2 117.519 18.5467 117.839 19C118.172 19.44 118.359 19.9533 118.399 20.54V24.24C118.359 24.8133 118.172 25.3267 117.839 25.78C117.519 26.22 117.092 26.5667 116.559 26.82C116.025 27.0733 115.432 27.2 114.779 27.2ZM115.359 24.48C115.785 24.48 116.152 24.3867 116.459 24.2C116.779 24.0133 117.019 23.7667 117.179 23.46C117.352 23.14 117.439 22.78 117.439 22.38C117.439 21.98 117.352 21.62 117.179 21.3C117.019 20.98 116.779 20.7267 116.459 20.54C116.152 20.3533 115.785 20.26 115.359 20.26C114.945 20.26 114.579 20.3533 114.259 20.54C113.939 20.7267 113.692 20.98 113.519 21.3C113.345 21.62 113.259 21.98 113.259 22.38C113.259 22.7533 113.345 23.1067 113.519 23.44C113.692 23.76 113.932 24.0133 114.239 24.2C114.559 24.3867 114.932 24.48 115.359 24.48Z" fill="#FF0000"/>
<path d="M133.32 27.5L129.38 21.2H129L123.56 13.38H127.3L131.18 19.3H131.56L137 27.5H133.32ZM123.3 27.5L128.52 19.94L130.94 21.3L126.88 27.5H123.3ZM131.68 20.84L129.26 19.48L133.18 13.38H136.76L131.68 20.84Z" fill="#FF0000"/>
<path d="M133.32 27.5L132.472 28.0302L132.766 28.5H133.32V27.5ZM129.38 21.2L130.228 20.6698L129.934 20.2H129.38V21.2ZM129 21.2L128.179 21.7711L128.477 22.2H129V21.2ZM123.56 13.38V12.38H121.646L122.739 13.9511L123.56 13.38ZM127.3 13.38L128.136 12.8318L127.84 12.38H127.3V13.38ZM131.18 19.3L130.344 19.8482L130.64 20.3H131.18V19.3ZM131.56 19.3L132.393 18.7472L132.097 18.3H131.56V19.3ZM137 27.5V28.5H138.863L137.833 26.9472L137 27.5ZM123.3 27.5L122.477 26.9318L121.394 28.5H123.3V27.5ZM128.52 19.94L129.01 19.0682L128.215 18.6216L127.697 19.3718L128.52 19.94ZM130.94 21.3L131.777 21.8478L132.363 20.9525L131.43 20.4282L130.94 21.3ZM126.88 27.5V28.5H127.42L127.717 28.0478L126.88 27.5ZM131.68 20.84L131.19 21.7118L131.99 22.1613L132.507 21.4029L131.68 20.84ZM129.26 19.48L128.419 18.9394L127.845 19.832L128.77 20.3518L129.26 19.48ZM133.18 13.38V12.38H132.634L132.339 12.8394L133.18 13.38ZM136.76 13.38L137.587 13.9429L138.651 12.38H136.76V13.38ZM134.168 26.9698L130.228 20.6698L128.532 21.7302L132.472 28.0302L134.168 26.9698ZM129.38 20.2H129V22.2H129.38V20.2ZM129.821 20.6289L124.381 12.8089L122.739 13.9511L128.179 21.7711L129.821 20.6289ZM123.56 14.38H127.3V12.38H123.56V14.38ZM126.464 13.9282L130.344 19.8482L132.016 18.7518L128.136 12.8318L126.464 13.9282ZM131.18 20.3H131.56V18.3H131.18V20.3ZM130.727 19.8528L136.167 28.0528L137.833 26.9472L132.393 18.7472L130.727 19.8528ZM137 26.5H133.32V28.5H137V26.5ZM124.123 28.0682L129.343 20.5082L127.697 19.3718L122.477 26.9318L124.123 28.0682ZM128.03 20.8118L130.45 22.1718L131.43 20.4282L129.01 19.0682L128.03 20.8118ZM130.103 20.7522L126.043 26.9522L127.717 28.0478L131.777 21.8478L130.103 20.7522ZM126.88 26.5H123.3V28.5H126.88V26.5ZM132.17 19.9682L129.75 18.6082L128.77 20.3518L131.19 21.7118L132.17 19.9682ZM130.101 20.0206L134.021 13.9206L132.339 12.8394L128.419 18.9394L130.101 20.0206ZM133.18 14.38H136.76V12.38H133.18V14.38ZM135.933 12.8171L130.853 20.2771L132.507 21.4029L137.587 13.9429L135.933 12.8171Z" fill="#FF0000"/>
<defs>
<clipPath id="clip0_88_110">
<rect width="40" height="40" fill="white"/>
</clipPath>
</defs>
</svg>
